<svg id="Group" xmlns="http://www.w3.org/2000/svg" width="16" height="16" viewBox="0 0 16 16">
  <path id="Icon_awesome-clock" data-name="Icon awesome-clock" d="M8.563.563A8.1,8.1,0,0,0,.866,6.37a7.47,7.47,0,0,0-.3,2.192,8.142,8.142,0,0,0,2.827,6.1,7.77,7.77,0,0,0,5.173,1.9,8,8,0,0,0,0-16ZM10.4,11.856,7.559,9.788A.39.39,0,0,1,7.4,9.475V4.046a.388.388,0,0,1,.387-.387H9.337a.388.388,0,0,1,.387.387V8.488l2.048,1.49a.387.387,0,0,1,.084.542l-.91,1.252A.39.39,0,0,1,10.4,11.856Z" transform="translate(-0.563 -0.563)" fill="#f4d504"/>
</svg>
