<svg xmlns="http://www.w3.org/2000/svg" width="16" height="9.505" viewBox="0 0 16 9.505">
  <path id="Icon_awesome-vk" data-name="Icon awesome-vk" d="M16.943,7.395c.11-.371,0-.645-.529-.645H14.665a.751.751,0,0,0-.76.5,14.659,14.659,0,0,1-2.15,3.579c-.407.407-.594.538-.817.538-.11,0-.279-.131-.279-.5V7.395c0-.446-.125-.645-.493-.645H7.415a.422.422,0,0,0-.446.4c0,.422.63.52.7,1.708v2.578c0,.564-.1.668-.324.668-.594,0-2.038-2.18-2.893-4.675-.172-.484-.342-.68-.79-.68H1.908c-.5,0-.6.235-.6.5,0,.463.594,2.765,2.765,5.807a6.82,6.82,0,0,0,5.338,3.2c1.114,0,1.25-.25,1.25-.68,0-1.984-.1-2.171.457-2.171.258,0,.7.131,1.744,1.132,1.188,1.188,1.384,1.72,2.049,1.72h1.749c.5,0,.751-.25.606-.743-.333-1.037-2.581-3.169-2.682-3.312-.258-.333-.184-.481,0-.778a21.767,21.767,0,0,0,2.358-4.028Z" transform="translate(-1.308 -6.75)" fill="#fff"/>
</svg>
